<svg width="53" height="52" viewBox="0 0 53 52" fill="none" xmlns="http://www.w3.org/2000/svg">
<g id="Logo">
<path id="Vector" d="M26.2861 13.6797C26.2861 20.3459 20.8821 25.75 14.2158 25.75H2.14551V13.6797C2.14551 7.01343 7.54956 1.60938 14.2158 1.60938C20.8821 1.60938 26.2861 7.01343 26.2861 13.6797Z" fill="#749B3F"/>
<path id="Vector_2" d="M26.2866 37.8203C26.2866 31.1541 31.6907 25.75 38.3569 25.75H50.4272V37.8203C50.4272 44.4866 45.0232 49.8906 38.3569 49.8906C31.6907 49.8906 26.2866 44.4866 26.2866 37.8203Z" fill="#749B3F"/>
<path id="Vector_3" d="M2.14551 37.8203C2.14551 44.4866 7.54956 49.8906 14.2158 49.8906H26.2861V37.8203C26.2861 31.1541 20.8821 25.75 14.2158 25.75C7.54956 25.75 2.14551 31.1541 2.14551 37.8203Z" fill="#749B3F"/>
<path id="Vector_4" d="M50.4272 13.6797C50.4272 7.01343 45.0232 1.60938 38.3569 1.60938H26.2866V13.6797C26.2866 20.3459 31.6907 25.75 38.3569 25.75C45.0232 25.75 50.4272 20.3459 50.4272 13.6797Z" fill="#749B3F"/>
</g>
</svg>
